<?xml version="1.0" encoding="UTF-8" standalone="no"?>
<svg
   xmlns:dc="http://purl.org/dc/elements/1.1/"
   xmlns:cc="http://creativecommons.org/ns#"
   xmlns:rdf="http://www.w3.org/1999/02/22-rdf-syntax-ns#"
   xmlns:svg="http://www.w3.org/2000/svg"
   xmlns="http://www.w3.org/2000/svg"
   xmlns:sodipodi="http://sodipodi.sourceforge.net/DTD/sodipodi-0.dtd"
   xmlns:inkscape="http://www.inkscape.org/namespaces/inkscape"
   version="1.1"
   viewBox="0.0 0.0 348.0 348.0"
   fill="none"
   stroke="none"
   stroke-linecap="square"
   stroke-miterlimit="10"
   id="svg3755"
   sodipodi:docname="Malfunctions.svg"
   inkscape:version="0.92.3 (2405546, 2018-03-11)">
  <metadata
     id="metadata3761">
    <rdf:RDF>
      <cc:Work
         rdf:about="">
        <dc:format>image/svg+xml</dc:format>
        <dc:type
           rdf:resource="http://purl.org/dc/dcmitype/StillImage" />
      </cc:Work>
    </rdf:RDF>
  </metadata>
  <defs
     id="defs3759" />
  <sodipodi:namedview
     pagecolor="#ffffff"
     bordercolor="#666666"
     borderopacity="1"
     objecttolerance="10"
     gridtolerance="10"
     guidetolerance="10"
     inkscape:pageopacity="0"
     inkscape:pageshadow="2"
     inkscape:window-width="1619"
     inkscape:window-height="892"
     id="namedview3757"
     showgrid="false"
     inkscape:zoom="0.96"
     inkscape:cx="-66.739883"
     inkscape:cy="159.45235"
     inkscape:window-x="266"
     inkscape:window-y="70"
     inkscape:window-maximized="0"
     inkscape:current-layer="svg3755" />
  <clipPath
     id="p.0">
    <path
       d="m0 0l348.0 0l0 348.0l-348.0 0l0 -348.0z"
       clip-rule="nonzero"
       id="path3738" />
  </clipPath>
  <g
     clip-path="url(#p.0)"
     id="g3753"
     transform="matrix(1.0269663,0,0,1.0269663,-3.5191011,-5.0831461)">
    <path
       d="M 0,0 H 348 V 348 H 0 Z"
       id="path3741"
       inkscape:connector-curvature="0"
       style="fill:#000000;fill-opacity:0;fill-rule:nonzero" />
    <path
       d="M -6,0 H 342 V 347.9685 H -6 Z"
       id="path3743"
       inkscape:connector-curvature="0"
       style="fill:#ffffff;fill-rule:nonzero" />
    <path
       d="m 5.07874,5.7758217 h 336.9134 V 343.44512 H 5.07874 Z"
       id="path3745"
       inkscape:connector-curvature="0"
       style="fill:#000000;fill-opacity:0;fill-rule:nonzero" />
    <path
       d="m 5.07874,5.7758217 h 336.9134 V 343.44512 H 5.07874 Z"
       id="path3747"
       inkscape:connector-curvature="0"
       style="fill-rule:nonzero;stroke:#000000;stroke-width:2;stroke-linecap:butt;stroke-linejoin:round" />
    <path
       d="m 282.73444,40.553925 v 0 c 0,-8.375591 6.96603,-15.165352 15.55905,-15.165352 v 0 c 4.12653,0 8.08402,1.597773 11.00192,4.441828 2.91788,2.844057 4.55713,6.701422 4.55713,10.723524 v 0 c 0,8.375595 -6.966,15.165356 -15.55905,15.165356 v 0 c -8.59302,0 -15.55905,-6.789761 -15.55905,-15.165356 z"
       id="path3749"
       inkscape:connector-curvature="0"
       style="fill:#ffffff;fill-rule:nonzero" />
    <path
       d="m 282.73444,40.553925 v 0 c 0,-8.375591 6.96603,-15.165352 15.55905,-15.165352 v 0 c 4.12653,0 8.08402,1.597773 11.00192,4.441828 2.91788,2.844057 4.55713,6.701422 4.55713,10.723524 v 0 c 0,8.375595 -6.966,15.165356 -15.55905,15.165356 v 0 c -8.59302,0 -15.55905,-6.789761 -15.55905,-15.165356 z"
       id="path3751"
       inkscape:connector-curvature="0"
       style="fill-rule:nonzero;stroke:#000000;stroke-width:2;stroke-linecap:butt;stroke-linejoin:round" />
  </g>
  <rect
     style="fill:#ffffff;stroke:#000000;stroke-width:1.52019918"
     id="rect3843"
     width="34.327076"
     height="34.327076"
     x="21.793489"
     y="82.625702" />
  <rect
     style="fill:#ffffff;stroke:#000000;stroke-width:1.52019918"
     id="rect3843-2"
     width="34.327076"
     height="34.327076"
     x="67.358047"
     y="82.636536" />
  <rect
     style="fill:#ffffff;stroke:#000000;stroke-width:1.52019918"
     id="rect3843-9"
     width="34.327076"
     height="34.327076"
     x="113.00744"
     y="82.793488" />
  <rect
     style="fill:#ffffff;stroke:#000000;stroke-width:1.52019918"
     id="rect3843-2-4"
     width="34.327076"
     height="34.327076"
     x="158.57201"
     y="82.804321" />
  <rect
     style="fill:#ffffff;stroke:#000000;stroke-width:1.52019918"
     id="rect3843-0-9-2"
     width="34.327076"
     height="34.327076"
     x="204.13657"
     y="82.815155" />
  <rect
     style="fill:#ffffff;stroke:#000000;stroke-width:1.52019918"
     id="rect3843-3"
     width="34.327076"
     height="34.327076"
     x="21.793486"
     y="125.19128" />
  <rect
     style="fill:#ffffff;stroke:#000000;stroke-width:1.52019918"
     id="rect3843-2-7"
     width="34.327076"
     height="34.327076"
     x="67.358047"
     y="125.20211" />
  <rect
     style="fill:#ffffff;stroke:#000000;stroke-width:1.52019918"
     id="rect3843-9-1"
     width="34.327076"
     height="34.327076"
     x="113.00744"
     y="125.35905" />
  <rect
     style="fill:#ffffff;stroke:#000000;stroke-width:1.52019918"
     id="rect3843-2-4-8"
     width="34.327076"
     height="34.327076"
     x="158.57201"
     y="125.36989" />
  <rect
     style="fill:#ffffff;stroke:#000000;stroke-width:1.52019918"
     id="rect3843-0-9-2-5"
     width="34.327076"
     height="34.327076"
     x="204.13657"
     y="125.38072" />
  <rect
     style="fill:#000000;stroke:#000000;stroke-width:1.05463421"
     id="rect3997"
     width="323.82089"
     height="40.61874"
     x="14.492005"
     y="298.16089" />
  <g
     aria-label="123456789012"
     transform="scale(0.95607203,1.0459463)"
     style="font-style:normal;font-variant:normal;font-weight:normal;font-stretch:normal;font-size:43.90544128px;line-height:1.25;font-family:sans-serif;-inkscape-font-specification:sans-serif;letter-spacing:0px;word-spacing:0px;fill:#ffffff;fill-opacity:1;stroke:none;stroke-width:1.0976361"
     id="text4857-3">
    <path
       d="m 21.044189,316.67536 h 7.074608 v -24.41811 l -7.696316,1.54355 v -3.94463 l 7.653439,-1.54355 h 4.330517 v 28.36274 h 7.074608 v 3.64449 H 21.044189 Z"
       style="stroke-width:1.0976361"
       id="path886" />
    <path
       d="m 51.979517,316.67536 h 15.113934 v 3.64449 H 46.770034 v -3.64449 q 2.465393,-2.55115 6.710158,-6.83879 4.266202,-4.30908 5.35955,-5.55249 2.079506,-2.33677 2.894158,-3.94463 0.83609,-1.6293 0.83609,-3.19429 0,-2.55115 -1.800809,-4.15902 -1.779371,-1.60786 -4.65209,-1.60786 -2.03663,0 -4.309079,0.70746 -2.251012,0.70746 -4.823596,2.14382 v -4.37339 q 2.615461,-1.05047 4.88791,-1.58643 2.27245,-0.53595 4.159012,-0.53595 4.973663,0 7.932135,2.48683 2.958472,2.48683 2.958472,6.64584 0,1.97231 -0.750337,3.75169 -0.728899,1.75793 -2.679775,4.15901 -0.535955,0.6217 -3.408675,3.60162 -2.872719,2.95847 -8.103641,8.29658 z"
       style="stroke-width:1.0976361"
       id="path888" />
    <path
       d="m 89.324868,303.0621 q 3.10854,0.66459 4.845034,2.76553 1.757933,2.10094 1.757933,5.18804 0,4.73785 -3.258607,7.33187 -3.258607,2.59402 -9.261304,2.59402 -2.015191,0 -4.159012,-0.40732 -2.122382,-0.38589 -4.394831,-1.1791 v -4.18045 q 1.800809,1.05047 3.944629,1.58642 2.14382,0.53596 4.480585,0.53596 4.073258,0 6.195641,-1.60787 2.14382,-1.60786 2.14382,-4.67353 0,-2.82984 -1.993753,-4.41627 -1.972315,-1.60786 -5.509618,-1.60786 h -3.730248 v -3.55874 h 3.901753 q 3.194293,0 4.887911,-1.26486 1.693618,-1.28629 1.693618,-3.68737 0,-2.46539 -1.757933,-3.77312 -1.736494,-1.32917 -4.995101,-1.32917 -1.779371,0 -3.816001,0.38589 -2.036629,0.38589 -4.480584,1.20054 v -3.85888 q 2.465393,-0.68602 4.609214,-1.02903 2.165258,-0.34301 4.073258,-0.34301 4.930787,0 7.803506,2.25101 2.87272,2.22957 2.87272,6.04557 0,2.65834 -1.522113,4.50202 -1.522112,1.82225 -4.330517,2.52971 z"
       style="stroke-width:1.0976361"
       id="path890" />
    <path
       d="m 116.05831,292.08574 -10.93348,17.08625 h 10.93348 z m -1.13622,-3.77312 h 5.4453 v 20.85937 h 4.56634 v 3.60162 h -4.56634 v 7.54624 h -4.30908 v -7.54624 h -14.44935 v -4.18045 z"
       style="stroke-width:1.0976361"
       id="path892" />
    <path
       d="m 132.1584,288.31262 h 17.00049 v 3.64449 h -13.03442 v 7.84638 q 0.94328,-0.32157 1.88656,-0.47164 0.94328,-0.1715 1.88656,-0.1715 5.35955,0 8.48953,2.93703 3.12998,2.93704 3.12998,7.95358 0,5.1666 -3.21573,8.03932 -3.21573,2.85128 -9.06836,2.85128 -2.01519,0 -4.11614,-0.34301 -2.0795,-0.34301 -4.30908,-1.02903 v -4.35196 q 1.92944,1.05047 3.98751,1.56499 2.05807,0.51452 4.35195,0.51452 3.70881,0 5.87407,-1.95088 2.16526,-1.95088 2.16526,-5.29523 0,-3.34436 -2.16526,-5.29524 -2.16526,-1.95088 -5.87407,-1.95088 -1.73649,0 -3.47299,0.38589 -1.71505,0.38589 -3.51586,1.20054 z"
       style="stroke-width:1.0976361"
       id="path894" />
    <path
       d="m 169.8682,302.59046 q -2.9156,0 -4.63066,1.99375 -1.69361,1.99376 -1.69361,5.46675 0,3.45155 1.69361,5.46674 1.71506,1.99375 4.63066,1.99375 2.91559,0 4.60921,-1.99375 1.71506,-2.01519 1.71506,-5.46674 0,-3.47299 -1.71506,-5.46675 -1.69362,-1.99375 -4.60921,-1.99375 z m 8.59672,-13.57038 v 3.94463 q -1.62931,-0.77178 -3.30149,-1.1791 -1.65074,-0.40733 -3.28004,-0.40733 -4.28764,0 -6.56009,2.89416 -2.25101,2.89415 -2.57259,8.74678 1.26486,-1.86512 3.17286,-2.85128 1.908,-1.00759 4.20188,-1.00759 4.8236,0 7.61057,2.93703 2.8084,2.9156 2.8084,7.95358 0,4.93078 -2.91559,7.91069 -2.9156,2.97991 -7.76063,2.97991 -5.5525,0 -8.48953,-4.24476 -2.93704,-4.2662 -2.93704,-12.34841 0,-7.58912 3.60162,-12.09114 3.60162,-4.52346 9.66863,-4.52346 1.6293,0 3.28005,0.32157 1.67218,0.32157 3.47299,0.96472 z"
       style="stroke-width:1.0976361"
       id="path896" />
    <path
       d="m 186.93302,288.31262 h 20.58067 v 1.84368 l -11.6195,30.16355 h -4.52346 l 10.93348,-28.36274 h -15.37119 z"
       style="stroke-width:1.0976361"
       id="path898" />
    <path
       d="m 225.24308,305.12017 q -3.0871,0 -4.86647,1.65074 -1.75793,1.65074 -1.75793,4.5449 0,2.89416 1.75793,4.5449 1.77937,1.65074 4.86647,1.65074 3.0871,0 4.86648,-1.65074 1.77937,-1.67218 1.77937,-4.5449 0,-2.89416 -1.77937,-4.5449 -1.75794,-1.65074 -4.86648,-1.65074 z m -4.33051,-1.84369 q -2.78697,-0.68602 -4.35196,-2.59402 -1.54355,-1.908 -1.54355,-4.65209 0,-3.83744 2.72265,-6.06701 2.74409,-2.22957 7.50337,-2.22957 4.78072,0 7.50337,2.22957 2.72266,2.22957 2.72266,6.06701 0,2.74409 -1.56499,4.65209 -1.54355,1.908 -4.30908,2.59402 3.12998,0.7289 4.86647,2.85128 1.75793,2.12239 1.75793,5.18805 0,4.65209 -2.85128,7.13892 -2.82984,2.48683 -8.12508,2.48683 -5.29523,0 -8.14651,-2.48683 -2.82985,-2.48683 -2.82985,-7.13892 0,-3.06566 1.75794,-5.18805 1.75793,-2.12238 4.88791,-2.85128 z m -1.58643,-6.83878 q 0,2.48683 1.54355,3.88031 1.56499,1.39348 4.37339,1.39348 2.78697,0 4.35196,-1.39348 1.58643,-1.39348 1.58643,-3.88031 0,-2.48684 -1.58643,-3.88032 -1.56499,-1.39348 -4.35196,-1.39348 -2.8084,0 -4.37339,1.39348 -1.54355,1.39348 -1.54355,3.88032 z"
       style="stroke-width:1.0976361"
       id="path900" />
    <path
       d="m 244.06582,319.65527 v -3.94463 q 1.62931,0.77178 3.30149,1.1791 1.67218,0.40733 3.28004,0.40733 4.28764,0 6.53865,-2.87272 2.27245,-2.89416 2.59403,-8.76823 -1.24342,1.84369 -3.15142,2.82985 -1.908,0.98615 -4.22333,0.98615 -4.80215,0 -7.61056,-2.89415 -2.78697,-2.9156 -2.78697,-7.95358 0,-4.93078 2.9156,-7.91069 2.9156,-2.97991 7.76063,-2.97991 5.5525,0 8.46809,4.2662 2.93703,4.24476 2.93703,12.3484 0,7.56769 -3.60161,12.09115 -3.58018,4.50202 -9.6472,4.50202 -1.6293,0 -3.30148,-0.32157 -1.67218,-0.32157 -3.47299,-0.96472 z m 8.61816,-13.57038 q 2.9156,0 4.60921,-1.99376 1.71506,-1.99375 1.71506,-5.46674 0,-3.45155 -1.71506,-5.4453 -1.69361,-2.01519 -4.60921,-2.01519 -2.9156,0 -4.63065,2.01519 -1.69362,1.99375 -1.69362,5.4453 0,3.47299 1.69362,5.46674 1.71505,1.99376 4.63065,1.99376 z"
       style="stroke-width:1.0976361"
       id="path902" />
    <path
       d="m 281.15391,291.1639 q -3.34436,0 -5.03798,3.30148 -1.67218,3.28005 -1.67218,9.88301 0,6.58153 1.67218,9.88301 1.69362,3.28005 5.03798,3.28005 3.3658,0 5.03798,-3.28005 1.69362,-3.30148 1.69362,-9.88301 0,-6.60296 -1.69362,-9.88301 -1.67218,-3.30148 -5.03798,-3.30148 z m 0,-3.43011 q 5.38099,0 8.21083,4.2662 2.85128,4.24476 2.85128,12.3484 0,8.08221 -2.85128,12.34841 -2.82984,4.24476 -8.21083,4.24476 -5.38099,0 -8.23227,-4.24476 -2.82984,-4.2662 -2.82984,-12.34841 0,-8.10364 2.82984,-12.3484 2.85128,-4.2662 8.23227,-4.2662 z"
       style="stroke-width:1.0976361"
       id="path904" />
    <path
       d="m 300.59836,316.67536 h 7.07461 v -24.41811 l -7.69632,1.54355 v -3.94463 l 7.65344,-1.54355 h 4.33052 v 28.36274 h 7.0746 v 3.64449 h -18.43685 z"
       style="stroke-width:1.0976361"
       id="path906" />
    <path
       d="m 331.53368,316.67536 h 15.11394 v 3.64449 H 326.3242 v -3.64449 q 2.46539,-2.55115 6.71016,-6.83879 4.2662,-4.30908 5.35955,-5.55249 2.0795,-2.33677 2.89415,-3.94463 0.83609,-1.6293 0.83609,-3.19429 0,-2.55115 -1.8008,-4.15902 -1.77938,-1.60786 -4.65209,-1.60786 -2.03663,0 -4.30908,0.70746 -2.25101,0.70746 -4.8236,2.14382 v -4.37339 q 2.61546,-1.05047 4.88791,-1.58643 2.27245,-0.53595 4.15901,-0.53595 4.97367,0 7.93214,2.48683 2.95847,2.48683 2.95847,6.64584 0,1.97231 -0.75034,3.75169 -0.7289,1.75793 -2.67977,4.15901 -0.53596,0.6217 -3.40868,3.60162 -2.87272,2.95847 -8.10364,8.29658 z"
       style="stroke-width:1.0976361"
       id="path908" />
  </g>
  <rect
     style="fill:#ffffff;stroke:#000000;stroke-width:1.52019918"
     id="rect3843-3-5"
     width="34.327076"
     height="34.327076"
     x="20.436434"
     y="169.98047" />
  <rect
     style="fill:#ffffff;stroke:#000000;stroke-width:1.52019918"
     id="rect3843-2-7-9"
     width="34.327076"
     height="34.327076"
     x="66.001007"
     y="169.9913" />
  <rect
     style="fill:#ffffff;stroke:#000000;stroke-width:1.52019918"
     id="rect3843-9-1-3"
     width="34.327076"
     height="34.327076"
     x="111.65039"
     y="170.14825" />
  <rect
     style="fill:#ffffff;stroke:#000000;stroke-width:2.10749269"
     id="rect3843-0-9-2-5-6"
     width="47.588539"
     height="47.588539"
     x="247.57515"
     y="169.75589" />
  <rect
     style="fill:#000000;stroke:#000000;stroke-width:0.62436277"
     id="rect3997-0"
     width="112.30495"
     height="41.049011"
     x="38.380352"
     y="244.84656" />
  <rect
     style="fill:#000000;stroke:#000000;stroke-width:0.62436277"
     id="rect3997-0-0"
     width="112.30495"
     height="41.049011"
     x="195.53366"
     y="244.84654" />
  <rect
     style="fill:#000000;stroke:#000000;stroke-width:0.3049373"
     id="rect3997-0-1"
     width="26.615705"
     height="41.315277"
     x="160.64056"
     y="244.71342" />
  <rect
     style="fill:#000000;stroke:#000000;stroke-width:0.59725827"
     id="rect3997-0-3"
     width="102.69814"
     height="41.076115"
     x="13.162086"
     y="15.9434" />
  <rect
     style="fill:#000000;stroke:#000000;stroke-width:0.59938318"
     id="rect3997-0-0-1"
     width="103.49849"
     height="41.049011"
     x="166.49089"
     y="16.559031" />
  <rect
     style="fill:#000000;stroke:#000000;stroke-width:0.3465077"
     id="rect3997-0-1-8"
     width="34.401695"
     height="41.273708"
     x="123.41422"
     y="17.048807" />
  <g
     aria-label="1234"
     transform="scale(0.95607203,1.0459463)"
     style="font-style:normal;font-variant:normal;font-weight:normal;font-stretch:normal;font-size:43.90544128px;line-height:1.25;font-family:sans-serif;-inkscape-font-specification:sans-serif;letter-spacing:0px;word-spacing:0px;fill:#ffffff;fill-opacity:1;stroke:none;stroke-width:1.0976361"
     id="text4857-3-8">
    <path
       d="m 48.317107,268.04334 h 7.074607 v -24.41811 l -7.696315,1.54355 v -3.94463 l 7.653439,-1.54355 h 4.330517 v 28.36274 h 7.074607 v 3.6445 H 48.317107 Z"
       style="stroke-width:1.0976361"
       id="path911" />
    <path
       d="m 79.252435,268.04334 h 15.113934 v 3.6445 H 74.042951 v -3.6445 q 2.465394,-2.55115 6.710158,-6.83879 4.266203,-4.30907 5.359551,-5.55249 2.079506,-2.33676 2.894158,-3.94463 0.83609,-1.6293 0.83609,-3.19429 0,-2.55115 -1.800809,-4.15901 -1.779371,-1.60787 -4.652091,-1.60787 -2.036629,0 -4.309079,0.70746 -2.251011,0.70746 -4.823595,2.14382 v -4.37339 q 2.61546,-1.05047 4.88791,-1.58643 2.27245,-0.53595 4.159012,-0.53595 4.973663,0 7.932135,2.48683 2.958472,2.48683 2.958472,6.64584 0,1.97232 -0.750337,3.75169 -0.728899,1.75793 -2.679776,4.15901 -0.535955,0.62171 -3.408674,3.60162 -2.872719,2.95847 -8.103641,8.29658 z"
       style="stroke-width:1.0976361"
       id="path913" />
    <path
       d="m 116.59779,254.43008 q 3.10854,0.66459 4.84503,2.76553 1.75793,2.10094 1.75793,5.18805 0,4.73784 -3.2586,7.33186 -3.25861,2.59402 -9.26131,2.59402 -2.01519,0 -4.15901,-0.40732 -2.12238,-0.38589 -4.39483,-1.1791 v -4.18045 q 1.80081,1.05047 3.94463,1.58642 2.14382,0.53596 4.48058,0.53596 4.07326,0 6.19564,-1.60787 2.14382,-1.60786 2.14382,-4.67352 0,-2.82985 -1.99375,-4.41627 -1.97231,-1.60787 -5.50962,-1.60787 h -3.73025 v -3.55874 h 3.90176 q 3.19429,0 4.88791,-1.26486 1.69362,-1.28629 1.69362,-3.68737 0,-2.46539 -1.75794,-3.77312 -1.73649,-1.32917 -4.9951,-1.32917 -1.77937,0 -3.816,0.38589 -2.03663,0.38589 -4.48058,1.20054 v -3.85888 q 2.46539,-0.68602 4.60921,-1.02903 2.16526,-0.34301 4.07326,-0.34301 4.93079,0 7.80351,2.25101 2.87272,2.22957 2.87272,6.04557 0,2.65834 -1.52212,4.50202 -1.52211,1.82225 -4.33051,2.52971 z"
       style="stroke-width:1.0976361"
       id="path915" />
    <path
       d="m 143.33123,243.45372 -10.93348,17.08625 h 10.93348 z M 142.195,239.6806 h 5.44531 v 20.85937 h 4.56634 v 3.60162 h -4.56634 v 7.54625 h -4.30908 v -7.54625 h -14.44935 v -4.18045 z"
       style="stroke-width:1.0976361"
       id="path917" />
  </g>
  <g
     aria-label="1234"
     transform="scale(0.95607203,1.0459463)"
     style="font-style:normal;font-variant:normal;font-weight:normal;font-stretch:normal;font-size:43.90544128px;line-height:1.25;font-family:sans-serif;-inkscape-font-specification:sans-serif;letter-spacing:0px;word-spacing:0px;fill:#ffffff;fill-opacity:1;stroke:none;stroke-width:1.0976361"
     id="text4857-3-8-9">
    <path
       d="m 211.61626,267.38801 h 7.07461 v -24.41812 l -7.69631,1.54355 v -3.94463 l 7.65343,-1.54355 h 4.33052 v 28.36275 h 7.07461 v 3.64449 h -18.43686 z"
       style="stroke-width:1.0976361"
       id="path923" />
    <path
       d="m 242.55159,267.38801 h 15.11393 v 3.64449 h -20.32341 v -3.64449 q 2.46539,-2.55115 6.71016,-6.83879 4.2662,-4.30908 5.35955,-5.5525 2.0795,-2.33676 2.89415,-3.94462 0.83609,-1.62931 0.83609,-3.1943 0,-2.55114 -1.80081,-4.15901 -1.77937,-1.60786 -4.65209,-1.60786 -2.03662,0 -4.30907,0.70746 -2.25102,0.70746 -4.8236,2.14382 v -4.3734 q 2.61546,-1.05047 4.88791,-1.58642 2.27245,-0.53596 4.15901,-0.53596 4.97366,0 7.93214,2.48683 2.95847,2.48683 2.95847,6.64585 0,1.97231 -0.75034,3.75168 -0.7289,1.75793 -2.67977,4.15901 -0.53596,0.62171 -3.40868,3.60162 -2.87272,2.95847 -8.10364,8.29659 z"
       style="stroke-width:1.0976361"
       id="path925" />
    <path
       d="m 279.89694,253.77475 q 3.10854,0.66458 4.84504,2.76553 1.75793,2.10094 1.75793,5.18804 0,4.73784 -3.25861,7.33187 -3.25861,2.59402 -9.2613,2.59402 -2.01519,0 -4.15901,-0.40733 -2.12239,-0.38588 -4.39484,-1.1791 v -4.18045 q 1.80081,1.05047 3.94463,1.58643 2.14382,0.53595 4.48059,0.53595 4.07326,0 6.19564,-1.60786 2.14382,-1.60787 2.14382,-4.67353 0,-2.82984 -1.99375,-4.41627 -1.97232,-1.60786 -5.50962,-1.60786 h -3.73025 v -3.55875 h 3.90175 q 3.1943,0 4.88791,-1.26485 1.69362,-1.28629 1.69362,-3.68737 0,-2.46539 -1.75793,-3.77313 -1.73649,-1.32916 -4.9951,-1.32916 -1.77937,0 -3.816,0.38588 -2.03663,0.38589 -4.48059,1.20054 v -3.85887 q 2.4654,-0.68603 4.60922,-1.02904 2.16526,-0.34301 4.07326,-0.34301 4.93078,0 7.8035,2.25101 2.87272,2.22958 2.87272,6.04558 0,2.65833 -1.52211,4.50202 -1.52211,1.82225 -4.33052,2.52971 z"
       style="stroke-width:1.0976361"
       id="path927" />
    <path
       d="m 306.63039,242.79839 -10.93349,17.08625 h 10.93349 z m -1.13623,-3.77313 h 5.4453 v 20.85938 h 4.56634 v 3.60161 h -4.56634 v 7.54625 h -4.30907 v -7.54625 h -14.44935 v -4.18045 z"
       style="stroke-width:1.0976361"
       id="path929" />
  </g>
  <g
     aria-label="123"
     transform="scale(0.95607203,1.0459463)"
     style="font-style:normal;font-variant:normal;font-weight:normal;font-stretch:normal;font-size:43.90544128px;line-height:1.25;font-family:sans-serif;-inkscape-font-specification:sans-serif;letter-spacing:0px;word-spacing:0px;fill:#ffffff;fill-opacity:1;stroke:none;stroke-width:1.0976361"
     id="text4857-3-8-7">
    <path
       d="m 32.190516,47.216563 h 7.074608 V 22.798449 l -7.696316,1.54355 V 20.39737 l 7.653439,-1.543551 h 4.330517 v 28.362744 h 7.074608 v 3.644494 H 32.190516 Z"
       style="stroke-width:1.0976361"
       id="path984" />
    <path
       d="m 63.125844,47.216563 h 15.113934 v 3.644494 H 57.916361 v -3.644494 q 2.465393,-2.551147 6.710158,-6.838787 4.266202,-4.309079 5.35955,-5.552495 2.079506,-2.336764 2.894158,-3.94463 0.83609,-1.629303 0.83609,-3.194292 0,-2.551146 -1.800809,-4.159012 -1.779371,-1.607865 -4.65209,-1.607865 -2.03663,0 -4.309079,0.707461 -2.251012,0.707461 -4.823596,2.14382 V 20.39737 q 2.615461,-1.050472 4.88791,-1.586427 2.27245,-0.535955 4.159012,-0.535955 4.973663,0 7.932135,2.486831 2.958472,2.486832 2.958472,6.645843 0,1.972315 -0.750337,3.751686 -0.728899,1.757933 -2.679775,4.159012 -0.535955,0.621707 -3.408675,3.601618 -2.872719,2.958472 -8.103641,8.296585 z"
       style="stroke-width:1.0976361"
       id="path986" />
    <path
       d="m 100.4712,33.603303 q 3.10853,0.664585 4.84503,2.765529 1.75793,2.100944 1.75793,5.188045 0,4.737843 -3.25861,7.331866 -3.2586,2.594022 -9.261299,2.594022 -2.015191,0 -4.159012,-0.407326 -2.122382,-0.385887 -4.394831,-1.179101 v -4.18045 q 1.800809,1.050472 3.944629,1.586427 2.14382,0.535956 4.480585,0.535956 4.073258,0 6.195638,-1.607866 2.14382,-1.607865 2.14382,-4.673528 0,-2.829843 -1.99375,-4.41627 -1.972315,-1.607865 -5.509618,-1.607865 H 91.531464 V 31.974 h 3.901753 q 3.194293,0 4.887913,-1.264854 1.69362,-1.286292 1.69362,-3.687371 0,-2.465394 -1.75794,-3.773124 -1.736491,-1.329169 -4.995098,-1.329169 -1.779371,0 -3.816001,0.385888 -2.036629,0.385888 -4.480584,1.200539 v -3.858876 q 2.465393,-0.686023 4.609214,-1.029034 2.165258,-0.343011 4.073258,-0.343011 4.930791,0 7.803511,2.251011 2.87271,2.229573 2.87271,6.045573 0,2.658338 -1.52211,4.502023 -1.52211,1.822248 -4.33051,2.529708 z"
       style="stroke-width:1.0976361"
       id="path988" />
  </g>
  <g
     aria-label="123"
     transform="scale(0.95607203,1.0459463)"
     style="font-style:normal;font-variant:normal;font-weight:normal;font-stretch:normal;font-size:43.90544128px;line-height:1.25;font-family:sans-serif;-inkscape-font-specification:sans-serif;letter-spacing:0px;word-spacing:0px;fill:#ffffff;fill-opacity:1;stroke:none;stroke-width:1.0976361"
     id="text4857-3-8-7-2">
    <path
       d="m 191.88409,47.216563 h 7.0746 V 22.798449 l -7.69631,1.54355 V 20.39737 l 7.65344,-1.543551 h 4.33051 v 28.362744 h 7.07461 v 3.644494 h -18.43685 z"
       style="stroke-width:1.0976361"
       id="path974" />
    <path
       d="m 222.81941,47.216563 h 15.11394 v 3.644494 h -20.32342 v -3.644494 q 2.46539,-2.551147 6.71016,-6.838787 4.2662,-4.309079 5.35955,-5.552495 2.0795,-2.336764 2.89416,-3.94463 0.83609,-1.629303 0.83609,-3.194292 0,-2.551146 -1.80081,-4.159012 -1.77937,-1.607865 -4.65209,-1.607865 -2.03663,0 -4.30908,0.707461 -2.25101,0.707461 -4.8236,2.14382 V 20.39737 q 2.61546,-1.050472 4.88791,-1.586427 2.27245,-0.535955 4.15901,-0.535955 4.97367,0 7.93214,2.486831 2.95847,2.486832 2.95847,6.645843 0,1.972315 -0.75034,3.751686 -0.72889,1.757933 -2.67977,4.159012 -0.53596,0.621707 -3.40868,3.601618 -2.87271,2.958472 -8.10364,8.296585 z"
       style="stroke-width:1.0976361"
       id="path976" />
    <path
       d="m 260.16476,33.603303 q 3.10854,0.664585 4.84504,2.765529 1.75793,2.100944 1.75793,5.188045 0,4.737843 -3.25861,7.331866 -3.2586,2.594022 -9.2613,2.594022 -2.01519,0 -4.15901,-0.407326 -2.12238,-0.385887 -4.39483,-1.179101 v -4.18045 q 1.80081,1.050472 3.94463,1.586427 2.14382,0.535956 4.48058,0.535956 4.07326,0 6.19564,-1.607866 2.14382,-1.607865 2.14382,-4.673528 0,-2.829843 -1.99375,-4.41627 -1.97232,-1.607865 -5.50962,-1.607865 h -3.73025 V 31.974 h 3.90176 q 3.19429,0 4.88791,-1.264854 1.69361,-1.286292 1.69361,-3.687371 0,-2.465394 -1.75793,-3.773124 -1.73649,-1.329169 -4.9951,-1.329169 -1.77937,0 -3.816,0.385888 -2.03663,0.385888 -4.48058,1.200539 v -3.858876 q 2.46539,-0.686023 4.60921,-1.029034 2.16526,-0.343011 4.07326,-0.343011 4.93079,0 7.8035,2.251011 2.87272,2.229573 2.87272,6.045573 0,2.658338 -1.52211,4.502023 -1.52211,1.822248 -4.33052,2.529708 z"
       style="stroke-width:1.0976361"
       id="path978" />
  </g>
  <g
     aria-label="X"
     transform="scale(0.95607203,1.0459463)"
     style="font-style:normal;font-variant:normal;font-weight:normal;font-stretch:normal;font-size:43.90544128px;line-height:1.25;font-family:sans-serif;-inkscape-font-specification:sans-serif;letter-spacing:0px;word-spacing:0px;fill:#ffffff;fill-opacity:1;stroke:none;stroke-width:1.0976361"
     id="text4857-3-8-7-3">
    <path
       d="m 134.41303,18.853819 h 4.6521 l 7.95357,11.898203 7.99645,-11.898203 h 4.65209 l -10.29034,15.371192 10.97636,16.636046 h -4.65209 l -9.00404,-13.613259 -9.06836,13.613259 h -4.67353 L 144.3818,33.774809 Z"
       style="stroke-width:1.0976361"
       id="path981" />
  </g>
  <g
     aria-label=","
     transform="scale(0.95607203,1.0459463)"
     style="font-style:normal;font-variant:normal;font-weight:normal;font-stretch:normal;font-size:43.90544128px;line-height:1.25;font-family:sans-serif;-inkscape-font-specification:sans-serif;letter-spacing:0px;word-spacing:0px;fill:#ffffff;fill-opacity:1;stroke:none;stroke-width:1.0976361"
     id="text4857-3-8-7-3-6">
    <path
       d="m 180.33354,257.20866 h 4.52346 v 3.68737 l -3.51587,6.86022 h -2.76552 l 1.75793,-6.86022 z"
       style="stroke-width:1.0976361"
       id="path920" />
  </g>
  <g
     aria-label="1"
     style="font-style:normal;font-variant:normal;font-weight:normal;font-stretch:normal;font-size:40px;line-height:1.25;font-family:sans-serif;-inkscape-font-specification:sans-serif;letter-spacing:0px;word-spacing:0px;fill:#000000;fill-opacity:1;stroke:none"
     id="text4148">
    <path
       d="m 31.568615,111.65322 h 6.445312 V 89.407127 l -7.011718,1.40625 v -3.59375 l 6.972656,-1.40625 h 3.945312 v 25.839843 h 6.445313 v 3.32031 H 31.568615 Z"
       style=""
       id="path971" />
  </g>
  <g
     aria-label="2"
     style="font-style:normal;font-variant:normal;font-weight:normal;font-stretch:normal;font-size:40px;line-height:1.25;font-family:sans-serif;-inkscape-font-specification:sans-serif;letter-spacing:0px;word-spacing:0px;fill:#000000;fill-opacity:1;stroke:none"
     id="text4148-0">
    <path
       d="m 79.612923,111.78241 h 13.769531 v 3.32031 H 74.866829 v -3.32031 q 2.246094,-2.32422 6.113281,-6.23047 3.886719,-3.92578 4.882813,-5.05859 1.894531,-2.128909 2.636718,-3.593753 0.761719,-1.484375 0.761719,-2.910156 0,-2.324219 -1.640625,-3.789063 -1.621094,-1.464843 -4.238281,-1.464843 -1.855469,0 -3.925781,0.644531 -2.050782,0.644531 -4.394532,1.953125 v -3.984375 q 2.382813,-0.957031 4.453125,-1.445313 2.070313,-0.488281 3.789063,-0.488281 4.53125,0 7.226562,2.265625 2.695313,2.265625 2.695313,6.054688 0,1.796875 -0.683594,3.417968 -0.664062,1.601563 -2.441406,3.789067 -0.488281,0.5664 -3.105469,3.28125 -2.617187,2.69531 -7.382812,7.55859 z"
       style=""
       id="path968" />
  </g>
  <g
     aria-label="3"
     style="font-style:normal;font-variant:normal;font-weight:normal;font-stretch:normal;font-size:40px;line-height:1.25;font-family:sans-serif;-inkscape-font-specification:sans-serif;letter-spacing:0px;word-spacing:0px;fill:#000000;fill-opacity:1;stroke:none"
     id="text4148-2">
    <path
       d="m 134.53085,99.380066 q 2.83203,0.605469 4.41406,2.519534 1.60156,1.91406 1.60156,4.72656 0,4.31641 -2.96875,6.67969 -2.96875,2.36328 -8.4375,2.36328 -1.83594,0 -3.78906,-0.3711 -1.9336,-0.35156 -4.00391,-1.07421 v -3.8086 q 1.64063,0.95703 3.59375,1.44531 1.95313,0.48829 4.08203,0.48829 3.71094,0 5.64453,-1.46485 1.95313,-1.46484 1.95313,-4.25781 0,-2.57813 -1.81641,-4.02344 -1.79687,-1.46484 -5.01953,-1.46484 h -3.39844 v -3.242189 h 3.55469 q 2.91016,0 4.45313,-1.152344 1.54297,-1.171875 1.54297,-3.359375 0,-2.246094 -1.60157,-3.4375 -1.58203,-1.210937 -4.55078,-1.210937 -1.62109,0 -3.47656,0.351562 -1.85547,0.351563 -4.08203,1.09375 v -3.515625 q 2.24609,-0.625 4.19922,-0.9375 1.97265,-0.3125 3.71093,-0.3125 4.49219,0 7.10938,2.050781 2.61719,2.03125 2.61719,5.507813 0,2.421875 -1.38672,4.101562 -1.38672,1.660157 -3.94531,2.304688 z"
       style=""
       id="path965" />
  </g>
  <g
     aria-label="4"
     style="font-style:normal;font-variant:normal;font-weight:normal;font-stretch:normal;font-size:40px;line-height:1.25;font-family:sans-serif;-inkscape-font-specification:sans-serif;letter-spacing:0px;word-spacing:0px;fill:#000000;fill-opacity:1;stroke:none"
     id="text4148-22">
    <path
       d="m 178.57655,88.777946 -9.96093,15.566404 h 9.96093 z m -1.03515,-3.4375 h 4.96093 v 19.003904 h 4.16016 v 3.28125 h -4.16016 v 6.875 h -3.92578 v -6.875 h -13.16406 v -3.80859 z"
       style=""
       id="path962" />
  </g>
  <g
     aria-label="5"
     style="font-style:normal;font-variant:normal;font-weight:normal;font-stretch:normal;font-size:40px;line-height:1.25;font-family:sans-serif;-inkscape-font-specification:sans-serif;letter-spacing:0px;word-spacing:0px;fill:#000000;fill-opacity:1;stroke:none"
     id="text4148-23">
    <path
       d="m 214.13901,85.942566 h 15.48828 v 3.320312 h -11.875 v 7.148438 q 0.85937,-0.292969 1.71875,-0.429688 0.85937,-0.15625 1.71875,-0.15625 4.88281,0 7.73437,2.675782 2.85157,2.67578 2.85157,7.24609 0,4.70703 -2.92969,7.32422 -2.92969,2.59766 -8.26172,2.59766 -1.83594,0 -3.75,-0.3125 -1.89453,-0.3125 -3.92578,-0.9375 v -3.96485 q 1.75781,0.95704 3.63281,1.42579 1.875,0.46875 3.96485,0.46875 3.3789,0 5.35156,-1.77735 1.97265,-1.77734 1.97265,-4.82422 0,-3.04687 -1.97265,-4.82422 -1.97266,-1.777339 -5.35156,-1.777339 -1.58204,0 -3.16407,0.351562 -1.5625,0.351563 -3.20312,1.093747 z"
       style=""
       id="path959" />
  </g>
  <g
     aria-label="6"
     style="font-style:normal;font-variant:normal;font-weight:normal;font-stretch:normal;font-size:40px;line-height:1.25;font-family:sans-serif;-inkscape-font-specification:sans-serif;letter-spacing:0px;word-spacing:0px;fill:#000000;fill-opacity:1;stroke:none"
     id="text4148-24">
    <path
       d="m 39.293921,140.66852 q -2.65625,0 -4.21875,1.8164 -1.542969,1.81641 -1.542969,4.98047 0,3.14453 1.542969,4.98047 1.5625,1.81641 4.21875,1.81641 2.65625,0 4.199218,-1.81641 1.5625,-1.83594 1.5625,-4.98047 0,-3.16406 -1.5625,-4.98047 -1.542968,-1.8164 -4.199218,-1.8164 z m 7.832031,-12.36328 v 3.59375 q -1.484375,-0.70313 -3.007813,-1.07422 -1.503906,-0.3711 -2.988281,-0.3711 -3.90625,0 -5.976562,2.63672 -2.050782,2.63672 -2.34375,7.96875 1.152343,-1.69922 2.890625,-2.59765 1.738281,-0.91797 3.828125,-0.91797 4.394531,0 6.933593,2.67578 2.558594,2.65625 2.558594,7.24609 0,4.49219 -2.65625,7.20703 -2.65625,2.71485 -7.070312,2.71485 -5.058594,0 -7.734375,-3.86719 -2.675782,-3.88672 -2.675782,-11.25 0,-6.91406 3.28125,-11.01562 3.28125,-4.1211 8.808594,-4.1211 1.484375,0 2.988281,0.29297 1.523438,0.29297 3.164063,0.87891 z"
       style=""
       id="path944" />
  </g>
  <g
     aria-label="7"
     style="font-style:normal;font-variant:normal;font-weight:normal;font-stretch:normal;font-size:40px;line-height:1.25;font-family:sans-serif;-inkscape-font-specification:sans-serif;letter-spacing:0px;word-spacing:0px;fill:#000000;fill-opacity:1;stroke:none"
     id="text4148-0-3">
    <path
       d="m 74.7015,127.78989 h 18.75 v 1.67968 L 82.865562,156.95004 H 78.744469 L 88.705406,131.1102 H 74.7015 Z"
       style=""
       id="path947" />
  </g>
  <g
     aria-label="8"
     style="font-style:normal;font-variant:normal;font-weight:normal;font-stretch:normal;font-size:40px;line-height:1.25;font-family:sans-serif;-inkscape-font-specification:sans-serif;letter-spacing:0px;word-spacing:0px;fill:#000000;fill-opacity:1;stroke:none"
     id="text4148-2-3">
    <path
       d="m 130.49834,143.10239 q -2.8125,0 -4.43359,1.5039 -1.60156,1.50391 -1.60156,4.14063 0,2.63672 1.60156,4.14062 1.62109,1.50391 4.43359,1.50391 2.8125,0 4.4336,-1.50391 1.62109,-1.52343 1.62109,-4.14062 0,-2.63672 -1.62109,-4.14063 -1.60156,-1.5039 -4.4336,-1.5039 z m -3.94531,-1.67969 q -2.53906,-0.625 -3.96484,-2.36328 -1.40625,-1.73828 -1.40625,-4.23828 0,-3.4961 2.48047,-5.52735 2.5,-2.03125 6.83593,-2.03125 4.35547,0 6.83594,2.03125 2.48047,2.03125 2.48047,5.52735 0,2.5 -1.42578,4.23828 -1.40625,1.73828 -3.92578,2.36328 2.85156,0.66406 4.43359,2.59766 1.60156,1.93359 1.60156,4.72656 0,4.23828 -2.59765,6.5039 -2.57813,2.26563 -7.40235,2.26563 -4.82421,0 -7.42187,-2.26563 -2.57813,-2.26562 -2.57813,-6.5039 0,-2.79297 1.60157,-4.72656 1.60156,-1.9336 4.45312,-2.59766 z m -1.44531,-6.23047 q 0,2.26563 1.40625,3.53516 1.42578,1.26953 3.98437,1.26953 2.53907,0 3.96485,-1.26953 1.44531,-1.26953 1.44531,-3.53516 0,-2.26562 -1.44531,-3.53516 -1.42578,-1.26953 -3.96485,-1.26953 -2.55859,0 -3.98437,1.26953 -1.40625,1.26954 -1.40625,3.53516 z"
       style=""
       id="path950" />
  </g>
  <g
     aria-label="9"
     style="font-style:normal;font-variant:normal;font-weight:normal;font-stretch:normal;font-size:40px;line-height:1.25;font-family:sans-serif;-inkscape-font-specification:sans-serif;letter-spacing:0px;word-spacing:0px;fill:#000000;fill-opacity:1;stroke:none"
     id="text4148-22-9">
    <path
       d="m 167.33701,155.74246 v -3.59375 q 1.48437,0.70313 3.00781,1.07422 1.52344,0.37109 2.98828,0.37109 3.90625,0 5.95703,-2.61718 2.07031,-2.63672 2.36328,-7.98828 -1.13281,1.67968 -2.87109,2.57812 -1.73828,0.89844 -3.84766,0.89844 -4.375,0 -6.93359,-2.63672 -2.53906,-2.65625 -2.53906,-7.24609 0,-4.49219 2.65625,-7.20704 2.65625,-2.71484 7.07031,-2.71484 5.05859,0 7.71484,3.88672 2.67578,3.86719 2.67578,11.25 0,6.89453 -3.28125,11.01562 -3.26172,4.10157 -8.78906,4.10157 -1.48437,0 -3.00781,-0.29297 -1.52344,-0.29297 -3.16406,-0.87891 z m 7.85156,-12.36328 q 2.65625,0 4.19922,-1.81641 1.5625,-1.8164 1.5625,-4.98046 0,-3.14454 -1.5625,-4.96094 -1.54297,-1.83594 -4.19922,-1.83594 -2.65625,0 -4.21875,1.83594 -1.54297,1.8164 -1.54297,4.96094 0,3.16406 1.54297,4.98046 1.5625,1.81641 4.21875,1.81641 z"
       style=""
       id="path953" />
  </g>
  <g
     aria-label="0"
     style="font-style:normal;font-variant:normal;font-weight:normal;font-stretch:normal;font-size:40px;line-height:1.25;font-family:sans-serif;-inkscape-font-specification:sans-serif;letter-spacing:0px;word-spacing:0px;fill:#000000;fill-opacity:1;stroke:none"
     id="text4148-23-7">
    <path
       d="m 222.02057,130.38754 q -3.04688,0 -4.58984,3.00782 -1.52344,2.98828 -1.52344,9.0039 0,5.9961 1.52344,9.00391 1.54296,2.98828 4.58984,2.98828 3.06641,0 4.58984,-2.98828 1.54297,-3.00781 1.54297,-9.00391 0,-6.01562 -1.54297,-9.0039 -1.52343,-3.00782 -4.58984,-3.00782 z m 0,-3.125 q 4.90234,0 7.48047,3.88672 2.59765,3.86719 2.59765,11.25 0,7.36328 -2.59765,11.25 -2.57813,3.86719 -7.48047,3.86719 -4.90234,0 -7.5,-3.86719 -2.57813,-3.88672 -2.57813,-11.25 0,-7.38281 2.57813,-11.25 2.59766,-3.88672 7.5,-3.88672 z"
       style=""
       id="path956" />
  </g>
  <g
     aria-label="Q"
     transform="scale(0.94530305,1.0578618)"
     style="font-style:normal;font-variant:normal;font-weight:normal;font-stretch:normal;font-size:31.93138504px;line-height:1.25;font-family:sans-serif;-inkscape-font-specification:sans-serif;letter-spacing:0px;word-spacing:0px;fill:#000000;fill-opacity:1;stroke:none;stroke-width:0.79828465"
     id="text4148-3">
    <path
       d="m 40.765829,164.8563 q -3.43013,0 -5.457024,2.557 -2.011303,2.55701 -2.011303,6.9694 0,4.3968 2.011303,6.95381 2.026894,2.55701 5.457024,2.55701 3.430129,0 5.42584,-2.55701 2.011303,-2.55701 2.011303,-6.95381 0,-4.41239 -2.011303,-6.9694 -1.995711,-2.557 -5.42584,-2.557 z m 4.412393,20.7211 4.147338,4.53712 h -3.804325 l -3.445721,-3.72637 q -0.514519,0.0312 -0.795166,0.0468 -0.265056,0.0156 -0.514519,0.0156 -4.911322,0 -7.858115,-3.27421 -2.931201,-3.28981 -2.931201,-8.79361 0,-5.51939 2.931201,-8.7936 2.946793,-3.28981 7.858115,-3.28981 4.895729,0 7.826931,3.28981 2.931201,3.27421 2.931201,8.7936 0,4.05379 -1.637107,6.93822 -1.621516,2.88443 -4.708632,4.25648 z"
       style="stroke-width:0.79828465"
       id="path941" />
  </g>
  <g
     aria-label="C"
     transform="scale(0.93483193,1.069711)"
     style="font-style:normal;font-variant:normal;font-weight:normal;font-stretch:normal;font-size:32.92802048px;line-height:1.25;font-family:sans-serif;-inkscape-font-specification:sans-serif;letter-spacing:0px;word-spacing:0px;fill:#000000;fill-opacity:1;stroke:none;stroke-width:0.82320052"
     id="text4148-0-1">
    <path
       d="m 97.515684,163.46826 v 3.42464 q -1.639969,-1.52742 -3.505033,-2.28309 -1.848986,-0.75567 -3.939143,-0.75567 -4.116003,0 -6.302629,2.52426 -2.186626,2.50819 -2.186626,7.26732 0,4.74305 2.186626,7.26732 2.186626,2.50819 6.302629,2.50819 2.090157,0 3.939143,-0.75567 1.865064,-0.75568 3.505033,-2.2831 v 3.39249 q -1.704282,1.15762 -3.61758,1.73643 -1.89722,0.57882 -4.019534,0.57882 -5.450488,0 -8.585724,-3.32818 -3.135236,-3.34425 -3.135236,-9.1163 0,-5.78813 3.135236,-9.1163 3.135236,-3.34425 8.585724,-3.34425 2.15447,0 4.05169,0.57881 1.913298,0.56273 3.585424,1.70428 z"
       style="stroke-width:0.82320052"
       id="path938" />
  </g>
  <g
     aria-label=","
     style="font-style:normal;font-variant:normal;font-weight:normal;font-stretch:normal;font-size:40px;line-height:1.25;font-family:sans-serif;-inkscape-font-specification:sans-serif;letter-spacing:0px;word-spacing:0px;fill:#000000;fill-opacity:1;stroke:none"
     id="text4148-2-8">
    <path
       d="m 126.08371,189.92267 h 4.12109 v 3.35937 l -3.20312,6.25 h -2.51953 l 1.60156,-6.25 z"
       style=""
       id="path935" />
  </g>
  <g
     aria-label="S"
     transform="scale(1.0353647,0.96584324)"
     style="font-style:normal;font-variant:normal;font-weight:normal;font-stretch:normal;font-size:48.8327713px;line-height:1.25;font-family:sans-serif;-inkscape-font-specification:sans-serif;letter-spacing:0px;word-spacing:0px;fill:#000000;fill-opacity:1;stroke:none;stroke-width:1.22081923"
     id="text4148-22-2">
    <path
       d="m 272.97851,183.4484 v 4.69729 q -2.74207,-1.31142 -5.17417,-1.95522 -2.4321,-0.64379 -4.69729,-0.64379 -3.93428,0 -6.08026,1.52603 -2.12212,1.52602 -2.12212,4.33963 0,2.36057 1.4068,3.57662 1.43065,1.1922 5.38877,1.93137 l 2.90899,0.5961 q 5.38877,1.0253 7.94009,3.62431 2.57517,2.57517 2.57517,6.9148 0,5.17417 -3.48125,7.84472 -3.45739,2.67054 -10.15759,2.67054 -2.52748,0 -5.38878,-0.57226 -2.83745,-0.57226 -5.8895,-1.69293 v -4.95958 q 2.93283,1.64524 5.74644,2.47979 2.81361,0.83454 5.53184,0.83454 4.12503,0 6.36638,-1.6214 2.24135,-1.6214 2.24135,-4.62576 0,-2.62285 -1.6214,-4.10119 -1.59756,-1.47834 -5.26956,-2.2175 l -2.93282,-0.57226 q -5.38878,-1.07299 -7.79703,-3.36202 -2.40826,-2.28904 -2.40826,-6.36639 0,-4.72113 3.31433,-7.43936 3.33818,-2.71823 9.17999,-2.71823 2.50363,0 5.10264,0.45303 2.59901,0.45304 5.31724,1.35912 z"
       style="stroke-width:1.22081923"
       id="path932" />
  </g>
</svg>
